<svg width="219" height="259" viewBox="0 0 219 259" fill="none" xmlns="http://www.w3.org/2000/svg">
<path d="M10.9363 13.6249C11.1845 13.6249 11.4271 13.6985 11.6335 13.8364C11.8399 13.9742 12.0007 14.1702 12.0957 14.3995C12.1907 14.6289 12.2155 14.8812 12.1671 15.1246C12.1187 15.368 11.9992 15.5916 11.8237 15.7671C11.6481 15.9427 11.4245 16.0622 11.1811 16.1106C10.9377 16.159 10.6854 16.1342 10.456 16.0392C10.2267 15.9442 10.0308 15.7834 9.89286 15.577C9.75497 15.3706 9.68137 15.128 9.68137 14.8798C9.68137 14.547 9.81358 14.2278 10.0489 13.9924C10.2843 13.7571 10.6035 13.6249 10.9363 13.6249Z" fill="#7B529E"/>
<path d="M13.6254 10.9357C13.6254 10.6875 13.699 10.4449 13.8369 10.2385C13.9748 10.0322 14.1708 9.87131 14.4001 9.77633C14.6294 9.68134 14.8817 9.65649 15.1251 9.70492C15.3686 9.75334 15.5922 9.87286 15.7677 10.0484C15.9432 10.2239 16.0627 10.4475 16.1111 10.6909C16.1595 10.9343 16.1347 11.1867 16.0397 11.416C15.9447 11.6453 15.7839 11.8413 15.5775 11.9792C15.3711 12.117 15.1285 12.1906 14.8803 12.1906C14.5475 12.1906 14.2283 12.0584 13.993 11.8231C13.7576 11.5877 13.6254 11.2685 13.6254 10.9357Z" fill="#7B529E"/>
<path d="M9.14356 10.9357C9.11473 10.6934 9.14126 10.4476 9.22117 10.217C9.30107 9.98636 9.43225 9.77686 9.60484 9.60427C9.77743 9.43168 9.98692 9.3005 10.2176 9.2206C10.4482 9.1407 10.6939 9.11416 10.9363 9.14299C11.4118 9.14299 11.8678 9.33187 12.204 9.66807C12.5402 10.0043 12.729 10.4603 12.729 10.9357C12.729 11.4112 12.5402 11.8672 12.204 12.2034C11.8678 12.5396 11.4118 12.7285 10.9363 12.7285C10.6939 12.7573 10.4482 12.7308 10.2176 12.6509C9.98692 12.571 9.77743 12.4398 9.60484 12.2672C9.43225 12.0946 9.30107 11.8851 9.22117 11.6545C9.14126 11.4239 9.11473 11.1781 9.14356 10.9357Z" fill="#7B529E"/>
<path d="M135.985 10.3979H210.025V11.4736H135.985V10.3979Z" fill="#7B529E"/>
<path d="M211.997 10.9358C212 10.6958 212.071 10.4615 212.203 10.2608C212.334 10.0601 212.521 9.90126 212.74 9.80321C212.959 9.70517 213.201 9.67199 213.439 9.70761C213.676 9.74324 213.898 9.84617 214.079 10.0042C214.259 10.1622 214.391 10.3688 214.458 10.5993C214.524 10.8298 214.524 11.0746 214.456 11.3047C214.388 11.5349 214.255 11.7406 214.073 11.8977C213.892 12.0547 213.669 12.1564 213.432 12.1907C213.252 12.2165 213.07 12.2033 212.896 12.152C212.723 12.1006 212.562 12.0123 212.426 11.8931C212.29 11.7738 212.181 11.6266 212.107 11.4613C212.033 11.2961 211.996 11.1168 211.997 10.9358Z" fill="#7B529E"/>
<path d="M215.404 10.9357C215.404 10.4603 215.593 10.0043 215.929 9.66807C216.265 9.33187 216.721 9.14299 217.196 9.14299C217.439 9.11416 217.685 9.1407 217.915 9.2206C218.146 9.3005 218.355 9.43168 218.528 9.60427C218.7 9.77686 218.832 9.98636 218.912 10.217C218.991 10.4476 219.018 10.6934 218.989 10.9357C219.018 11.1781 218.991 11.4239 218.912 11.6545C218.832 11.8851 218.7 12.0946 218.528 12.2672C218.355 12.4398 218.146 12.571 217.915 12.6509C217.685 12.7308 217.439 12.7573 217.196 12.7285C216.721 12.7285 216.265 12.5396 215.929 12.2034C215.593 11.8672 215.404 11.4112 215.404 10.9357Z" fill="#7B529E"/>
<path d="M131.503 10.9357C131.503 10.6875 131.577 10.4449 131.715 10.2385C131.853 10.0322 132.049 9.87132 132.278 9.77634C132.507 9.68136 132.76 9.65651 133.003 9.70493C133.246 9.75335 133.47 9.87287 133.646 10.0484C133.821 10.2239 133.941 10.4475 133.989 10.6909C134.037 10.9343 134.013 11.1867 133.918 11.416C133.823 11.6453 133.662 11.8413 133.455 11.9792C133.249 12.1171 133.006 12.1907 132.758 12.1907C132.425 12.1907 132.106 12.0584 131.871 11.8231C131.635 11.5878 131.503 11.2686 131.503 10.9357Z" fill="#7B529E"/>
<path d="M127.021 10.9357C126.993 10.6934 127.019 10.4476 127.099 10.217C127.179 9.98636 127.31 9.77686 127.483 9.60427C127.655 9.43168 127.865 9.3005 128.095 9.2206C128.326 9.1407 128.572 9.11416 128.814 9.14299C129.29 9.14299 129.746 9.33187 130.082 9.66807C130.418 10.0043 130.607 10.4603 130.607 10.9357C130.607 11.4112 130.418 11.8672 130.082 12.2034C129.746 12.5396 129.29 12.7285 128.814 12.7285C128.572 12.7573 128.326 12.7308 128.095 12.6509C127.865 12.571 127.655 12.4398 127.483 12.2672C127.31 12.0946 127.179 11.8851 127.099 11.6545C127.019 11.4239 126.993 11.1781 127.021 10.9357Z" fill="#7B529E"/>
<path d="M39.5354 10.9357C39.5354 10.6875 39.609 10.4449 39.7469 10.2385C39.8848 10.0322 40.0807 9.87132 40.31 9.77634C40.5394 9.68136 40.7917 9.65651 41.0351 9.70493C41.2785 9.75335 41.5021 9.87287 41.6777 10.0484C41.8532 10.2239 41.9727 10.4475 42.0211 10.6909C42.0695 10.9343 42.0447 11.1867 41.9497 11.416C41.8547 11.6453 41.6939 11.8413 41.4875 11.9792C41.2811 12.1171 41.0385 12.1907 40.7903 12.1907C40.4575 12.1907 40.1383 12.0584 39.9029 11.8231C39.6676 11.5878 39.5354 11.2686 39.5354 10.9357Z" fill="#7B529E"/>
<path d="M42.9416 10.9357C42.9416 10.4603 43.1305 10.0043 43.4667 9.66807C43.8029 9.33187 44.2589 9.14299 44.7344 9.14299C45.2098 9.14299 45.6658 9.33187 46.002 9.66807C46.3382 10.0043 46.5271 10.4603 46.5271 10.9357C46.5271 11.4112 46.3382 11.8672 46.002 12.2034C45.6658 12.5396 45.2098 12.7285 44.7344 12.7285C44.2589 12.7285 43.8029 12.5396 43.4667 12.2034C43.1305 11.8672 42.9416 11.4112 42.9416 10.9357Z" fill="#7B529E"/>
<path d="M85.4297 2.50984L82.7406 6.81243C81.3632 7.79666 79.9263 8.69474 78.438 9.50155L75.9282 10.9357L78.438 12.3699L82.7406 14.8798L85.4297 19.3616L86.8639 21.8715C87.1517 21.0063 87.5115 20.1667 87.9396 19.3616L90.808 14.8798L95.2898 12.3699L97.7997 10.9357L95.2898 9.50155L90.808 6.81243L87.9396 2.50984C87.5115 1.70476 87.1517 0.865204 86.8639 0L85.4297 2.50984ZM93.3178 10.9357L89.0152 13.2663L86.8639 17.9275L84.5334 13.2663L80.4101 10.9357L84.5334 8.60518L86.8639 4.48186L89.0152 8.60518L93.3178 10.9357Z" fill="#7B529E"/>
<path d="M49.2162 10.9357C48.7396 10.4868 48.3717 9.93494 48.1406 9.32227C47.9507 8.55701 47.9507 7.75697 48.1406 6.9917C48.5268 6.36639 49.0877 5.86782 49.754 5.55751C49.754 5.55751 49.754 5.55751 48.6784 6.9917C48.5977 7.64657 48.5977 8.30886 48.6784 8.96372C49.116 9.72485 49.8177 10.299 50.6504 10.5772C51.5889 10.8369 52.5803 10.8369 53.5188 10.5772C54.5703 9.99703 55.5358 9.27295 56.3872 8.4259L59.4348 5.37823C60.6158 4.25869 62.0213 3.40314 63.5582 2.86839C64.3162 2.51565 65.1423 2.33289 65.9784 2.33289C66.8145 2.33289 67.6405 2.51565 68.3986 2.86839C69.113 3.38616 69.6509 4.11104 69.9395 4.9448C70.2282 5.77856 70.2535 6.6809 70.012 7.52953C70.1873 8.17519 70.1873 8.85588 70.012 9.50155L68.2193 10.5772C67.7945 10.7597 67.3371 10.8538 66.8747 10.8538C66.4124 10.8538 65.955 10.7597 65.5302 10.5772C65.0223 10.4231 64.5603 10.1462 64.1851 9.77099C63.8098 9.39574 63.5329 8.93373 63.3789 8.4259C63.6188 8.77096 63.9414 9.05027 64.3173 9.23821C64.6932 9.42614 65.1102 9.51669 65.5302 9.50155C65.7804 9.62764 66.0567 9.69332 66.3369 9.69332C66.6171 9.69332 66.8934 9.62764 67.1437 9.50155C67.2542 9.27867 67.3118 9.03325 67.3118 8.78445C67.3118 8.53565 67.2542 8.29023 67.1437 8.06735C67.3639 7.68581 67.4799 7.253 67.4799 6.81243C67.4799 6.37186 67.3639 5.93905 67.1437 5.55751C66.225 5.179 65.1939 5.179 64.2753 5.55751C61.9447 5.55751 60.1519 8.4259 57.8214 10.2186H56.5665L57.8214 11.115C60.1519 12.9078 61.9447 15.2383 64.2753 15.7762C65.1939 16.1547 66.225 16.1547 67.1437 15.7762C67.6665 15.4468 68.0495 14.9361 68.2193 14.342C68.3299 14.1191 68.3874 13.8737 68.3874 13.6249C68.3874 13.3761 68.3299 13.1306 68.2193 12.9078C67.6926 12.7534 67.1326 12.7534 66.6058 12.9078C66.182 12.964 65.7735 13.1039 65.4042 13.3193C65.0349 13.5347 64.7121 13.8214 64.4545 14.1627C64.4076 13.8657 64.4076 13.5633 64.4545 13.2663C64.5798 12.5063 64.959 11.8111 65.5302 11.2943C65.955 11.1118 66.4124 11.0177 66.8747 11.0177C67.3371 11.0177 67.7945 11.1118 68.2193 11.2943L70.012 12.3699C70.1873 13.0156 70.1873 13.6963 70.012 14.342C70.0474 15.0248 69.9194 15.7062 69.6388 16.3298C69.3582 16.9533 68.9331 17.501 68.3986 17.9274C66.8462 18.5554 65.1105 18.5554 63.5582 17.9274C62.1046 17.7177 60.7048 17.2308 59.4348 16.4933L56.3872 13.4456C55.628 12.6192 54.7145 11.9493 53.6981 11.4736C52.7596 11.2139 51.7682 11.2139 50.8297 11.4736C49.997 11.7518 49.2953 12.3259 48.8577 13.087C48.7594 13.7407 48.7594 14.4054 48.8577 15.0591C48.8577 16.1347 50.1126 16.4933 49.9333 16.4933C49.754 16.4933 49.9333 16.4933 48.4991 15.0591C48.3093 14.2938 48.3093 13.4938 48.4991 12.7285C48.5992 12.0843 48.8444 11.4713 49.2162 10.9357Z" fill="#7B529E"/>
<path d="M123.794 10.9358C124.468 11.3186 125.025 11.876 125.408 12.5492C125.598 13.3145 125.598 14.1145 125.408 14.8798C124.691 16.1347 123.794 16.1347 123.794 16.314C124.329 15.949 124.713 15.4037 124.878 14.7781C125.042 14.1524 124.976 13.4884 124.691 12.9078C124.524 12.3066 124.217 11.7537 123.794 11.2943C122.857 11.0253 121.863 11.0253 120.926 11.2943C119.829 11.7186 118.847 12.394 118.058 13.2663L114.293 16.4933C113.044 17.613 111.58 18.4669 109.99 19.0031C108.534 19.1217 107.08 18.7425 105.867 17.9275C105.154 17.6039 104.533 17.1058 104.063 16.4791C103.593 15.8525 103.289 15.1174 103.178 14.342C103.003 13.6963 103.003 13.0156 103.178 12.37L105.867 11.2943C106.292 11.1118 106.749 11.0177 107.212 11.0177C107.674 11.0177 108.131 11.1118 108.556 11.2943C109.54 11.6587 110.364 12.3565 110.887 13.2663C110.913 13.5645 110.913 13.8645 110.887 14.1627C110.562 13.5994 110.09 13.1349 109.522 12.8191C108.953 12.5033 108.31 12.3481 107.66 12.37C107.024 12.3783 106.403 12.5646 105.867 12.9078C105.703 13.3718 105.703 13.878 105.867 14.342C105.617 14.9756 105.617 15.6804 105.867 16.314C106.319 16.5114 106.808 16.6133 107.301 16.6133C107.795 16.6133 108.283 16.5114 108.735 16.314C111.35 15.3189 113.731 13.7929 115.727 11.8321L116.982 10.9358H115.727C114.046 8.66609 111.909 6.77307 109.452 5.37825C108.892 5.09037 108.265 4.95536 107.636 4.98683C107.006 5.01831 106.396 5.21515 105.867 5.55753C105.617 6.19115 105.617 6.89592 105.867 7.52955C105.703 7.99354 105.703 8.49975 105.867 8.96374C106.121 9.0775 106.396 9.13631 106.674 9.13631C106.952 9.13631 107.227 9.0775 107.48 8.96374C107.926 9.05126 108.385 9.03189 108.822 8.90723C109.258 8.78257 109.658 8.55618 109.99 8.24665C109.772 8.74701 109.452 9.19658 109.051 9.56689C108.65 9.9372 108.176 10.2202 107.66 10.3979C107.089 10.6175 106.47 10.6794 105.867 10.5772L103.895 9.50157C103.72 8.8559 103.72 8.17521 103.895 7.52955C103.873 6.76045 104.041 5.99778 104.385 5.30958C104.729 4.62139 105.238 4.02908 105.867 3.58551C106.625 3.23277 107.451 3.05 108.287 3.05C109.123 3.05 109.949 3.23277 110.707 3.58551C111.992 3.98417 113.203 4.5897 114.293 5.37825L117.161 8.42592C117.998 9.24247 118.968 9.90948 120.03 10.3979C121.218 10.9265 122.561 10.9905 123.794 10.5772C124.217 10.1179 124.524 9.5649 124.691 8.96374C124.824 8.65207 124.893 8.31666 124.893 7.97773C124.893 7.63881 124.824 7.3034 124.691 6.99172C124.567 6.42435 124.25 5.91749 123.794 5.55753C124.126 5.67307 124.427 5.86207 124.676 6.11043C124.924 6.35878 125.113 6.66005 125.229 6.99172C125.418 7.75699 125.418 8.55703 125.229 9.32229C124.895 9.97326 124.402 10.5286 123.794 10.9358Z" fill="#7B529E"/>
<path d="M70.0121 10.9358C70.846 10.7608 71.6007 10.3205 72.1634 9.68084C73.1173 8.78026 74.0153 7.82235 74.8526 6.81245C75.9282 5.7368 77.721 5.0197 78.2588 5.55753C78.7966 6.09535 78.2588 8.06737 77.0038 9.14302C76.027 9.90331 74.9385 10.508 73.7769 10.9358C74.9718 11.2875 76.0739 11.8997 77.0038 12.7285C78.2588 13.8042 78.9759 15.5969 78.2588 16.314C77.5417 17.0311 75.9282 16.314 74.8526 15.0591C74.0153 14.0492 73.1173 13.0913 72.1634 12.1907C71.6007 11.551 70.846 11.1107 70.0121 10.9358Z" fill="#7B529E"/>
<path d="M102.999 10.9358L101.385 12.1907C100.431 13.0913 99.5332 14.0492 98.696 15.0591C97.6203 15.9554 95.8276 16.8518 95.2898 16.314C94.7519 15.7762 95.2898 13.8041 96.5447 12.7285C97.5026 11.94 98.5961 11.3325 99.7716 10.9358C98.6295 10.4665 97.5465 9.86481 96.5447 9.14301C95.2898 8.06736 94.5727 6.27462 95.2898 5.55752C96.0069 4.84042 97.6203 5.55752 98.696 6.81244C99.5332 7.82234 100.431 8.78025 101.385 9.68083L102.999 10.9358Z" fill="#7B529E"/>
<path d="M91.3458 6.45388L89.7323 3.04767C90.41 3.9712 91.192 4.81339 92.0629 5.55751C92.8541 6.43833 93.6919 7.27614 94.5727 8.06735C93.5733 7.38886 92.4882 6.84629 91.3458 6.45388Z" fill="#7B529E"/>
<path d="M82.2026 6.45388L78.9757 8.06735C79.8565 7.27614 80.6943 6.43833 81.4855 5.55751L83.9954 3.04767C83.3245 4.14295 82.7256 5.28076 82.2026 6.45388Z" fill="#7B529E"/>
<path d="M82.2026 15.4176C82.7256 16.5907 83.3245 17.7286 83.9954 18.8238C83.2042 17.943 82.3664 17.1052 81.4855 16.314C80.7417 15.3895 79.9002 14.548 78.9757 13.8042L82.2026 15.4176Z" fill="#7B529E"/>
<path d="M91.3458 15.4176L94.5727 13.8042C93.6482 14.548 92.8068 15.3895 92.0629 16.314C91.192 17.0581 90.41 17.9003 89.7323 18.8238L91.3458 15.4176Z" fill="#7B529E"/>
<path d="M100.847 16.314C100.847 16.314 100.847 15.4176 100.847 14.7005C101 14.0937 101.309 13.5374 101.744 13.087L103.536 11.6528C103.035 12.1877 102.612 12.7914 102.281 13.4456C102.281 13.4456 102.281 14.8798 102.281 15.059C102.281 15.2383 101.206 16.314 100.847 16.314Z" fill="#7B529E"/>
<path d="M72.7013 5.55751C72.7013 5.55751 72.7013 5.55751 72.7013 7.17098L71.8049 8.78445L70.0121 10.2186C70.6265 9.78547 71.0703 9.15141 71.2671 8.4259C71.351 7.89136 71.351 7.34698 71.2671 6.81243C71.2671 6.81243 72.3427 5.55751 72.7013 5.55751Z" fill="#7B529E"/>
<path d="M100.847 5.55751C100.847 5.55751 100.847 5.55751 100.847 7.17098C101.051 7.79739 101.423 8.35563 101.923 8.78445L103.716 10.2186C103.151 9.696 102.667 9.09172 102.281 8.4259C102.281 8.4259 102.281 6.99171 102.281 6.81243C102.281 6.63316 101.206 5.55751 100.847 5.55751Z" fill="#7B529E"/>
<path d="M72.7013 16.314C72.7013 16.314 72.7013 15.4176 72.7013 14.7005L71.8049 13.087L70.0121 11.6528C70.6265 12.086 71.0703 12.7201 71.2671 13.4456C71.351 13.9801 71.351 14.5245 71.2671 15.059C71.2671 15.059 72.3427 16.314 72.7013 16.314Z" fill="#7B529E"/>
<path d="M14.6886 152.188L14.6886 246.975L13.3116 246.975L13.3116 152.188L14.6886 152.188Z" fill="#7B529E"/>
<path d="M14 249.5C14.3072 249.503 14.6071 249.594 14.864 249.763C15.121 249.931 15.3243 250.17 15.4498 250.45C15.5754 250.73 15.6178 251.041 15.5722 251.345C15.5266 251.649 15.3948 251.933 15.1925 252.164C14.9902 252.395 14.7258 252.564 14.4307 252.649C14.1356 252.735 13.8222 252.734 13.5276 252.647C13.233 252.56 12.9695 252.39 12.7685 252.157C12.5675 251.925 12.4373 251.64 12.3934 251.336C12.3603 251.107 12.3772 250.873 12.4429 250.65C12.5087 250.428 12.6218 250.223 12.7744 250.048C12.927 249.874 13.1156 249.735 13.3271 249.64C13.5387 249.545 13.7682 249.497 14 249.5Z" fill="#7B529E"/>
<path d="M14 253.86C14.6087 253.86 15.1924 254.102 15.6228 254.533C16.0532 254.963 16.2951 255.547 16.2951 256.156C16.332 256.466 16.298 256.78 16.1957 257.076C16.0934 257.371 15.9255 257.639 15.7045 257.86C15.4836 258.081 15.2154 258.249 14.9201 258.351C14.6249 258.454 14.3102 258.488 14 258.451C13.6897 258.488 13.3751 258.454 13.0798 258.351C12.7846 258.249 12.5164 258.081 12.2954 257.86C12.0745 257.639 11.9065 257.371 11.8042 257.076C11.7019 256.78 11.668 256.466 11.7049 256.156C11.7049 255.547 11.9467 254.963 12.3771 254.533C12.8075 254.102 13.3913 253.86 14 253.86Z" fill="#7B529E"/>
<path d="M14 146.451C14.3178 146.451 14.6284 146.545 14.8926 146.721C15.1568 146.898 15.3627 147.149 15.4843 147.442C15.6059 147.736 15.6377 148.059 15.5757 148.371C15.5137 148.682 15.3607 148.968 15.136 149.193C14.9114 149.418 14.6251 149.571 14.3135 149.633C14.0018 149.695 13.6788 149.663 13.3852 149.541C13.0917 149.42 12.8408 149.214 12.6642 148.95C12.4877 148.685 12.3935 148.375 12.3935 148.057C12.3935 147.631 12.5627 147.222 12.864 146.921C13.1653 146.62 13.574 146.451 14 146.451Z" fill="#7B529E"/>
<path d="M14 140.713C14.3102 140.676 14.6249 140.71 14.9201 140.812C15.2154 140.914 15.4836 141.082 15.7045 141.303C15.9255 141.524 16.0934 141.792 16.1957 142.088C16.298 142.383 16.332 142.698 16.2951 143.008C16.2951 143.617 16.0532 144.2 15.6228 144.631C15.1924 145.061 14.6087 145.303 14 145.303C13.3913 145.303 12.8075 145.061 12.3771 144.631C11.9467 144.2 11.7049 143.617 11.7049 143.008C11.668 142.698 11.7019 142.383 11.8042 142.088C11.9065 141.792 12.0745 141.524 12.2954 141.303C12.5164 141.082 12.7846 140.914 13.0798 140.812C13.3751 140.71 13.6897 140.676 14 140.713Z" fill="#7B529E"/>
<path d="M14 28.7127C14.3178 28.7127 14.6284 28.8069 14.8926 28.9834C15.1568 29.16 15.3627 29.4109 15.4843 29.7044C15.6059 29.998 15.6377 30.321 15.5757 30.6327C15.5137 30.9443 15.3607 31.2306 15.136 31.4553C14.9114 31.6799 14.6251 31.8329 14.3135 31.8949C14.0018 31.9569 13.6788 31.9251 13.3852 31.8035C13.0917 31.6819 12.8408 31.476 12.6642 31.2118C12.4877 30.9476 12.3935 30.637 12.3935 30.3192C12.3935 29.8932 12.5627 29.4845 12.864 29.1832C13.1653 28.882 13.574 28.7127 14 28.7127Z" fill="#7B529E"/>
<path d="M14.0001 33.0734C14.6087 33.0734 15.1925 33.3152 15.6229 33.7456C16.0533 34.176 16.2951 34.7598 16.2951 35.3685C16.2951 35.9772 16.0533 36.5609 15.6229 36.9913C15.1925 37.4217 14.6087 37.6635 14.0001 37.6635C13.3914 37.6635 12.8076 37.4217 12.3772 36.9913C11.9468 36.5609 11.705 35.9772 11.705 35.3685C11.705 34.7598 11.9468 34.176 12.3772 33.7456C12.8076 33.3152 13.3914 33.0734 14.0001 33.0734Z" fill="#7B529E"/>
<path d="M24.7869 87.4669L19.2787 84.0242C18.0187 82.2609 16.8689 80.4213 15.8361 78.516L14 75.3029L12.1639 78.516L8.9508 84.0242L3.21309 87.4669L-2.83911e-05 89.3029C1.10761 89.6713 2.18241 90.132 3.21309 90.68L8.9508 94.3521L12.1639 100.09L14 103.303L15.8361 100.09L19.2787 94.3521L24.7869 90.68C25.8176 90.132 26.8924 89.6714 28 89.3029L24.7869 87.4669ZM14 97.5652L11.0164 92.057L5.04916 89.3029L11.0164 86.3193L14 81.0406L16.9836 86.3193L22.2623 89.3029L16.9836 92.057L14 97.5652Z" fill="#7B529E"/>
<path d="M14 41.1062C14.5748 40.4959 15.2812 40.025 16.0656 39.7291C17.0453 39.4861 18.0695 39.4861 19.0492 39.7291C19.8497 40.2236 20.488 40.9417 20.8852 41.7947C20.8852 41.7947 20.8852 41.7947 19.0492 40.4176C18.2108 40.3144 17.3629 40.3144 16.5246 40.4176C15.5502 40.9779 14.8152 41.8762 14.459 42.9422C14.1266 44.1437 14.1266 45.4129 14.459 46.6144C15.2017 47.9606 16.1287 49.1965 17.2131 50.2865L21.1148 54.1881C22.548 55.6999 23.6433 57.4993 24.3279 59.4668C24.7794 60.4373 25.0134 61.4948 25.0134 62.5652C25.0134 63.6356 24.7794 64.6931 24.3279 65.6636C23.665 66.5781 22.737 67.2668 21.6696 67.6363C20.6022 68.0058 19.4471 68.0382 18.3606 67.7291C17.5341 67.9534 16.6626 67.9534 15.8361 67.7291L14.459 65.434C14.2254 64.8903 14.1049 64.3046 14.1049 63.7127C14.1049 63.1209 14.2254 62.5352 14.459 61.9914C14.6562 61.3413 15.0107 60.7498 15.4911 60.2694C15.9715 59.789 16.563 59.4345 17.2131 59.2373C16.7714 59.5444 16.4138 59.9575 16.1732 60.4387C15.9326 60.9199 15.8167 61.4538 15.8361 61.9914C15.6746 62.3118 15.5905 62.6655 15.5905 63.0242C15.5905 63.3829 15.6746 63.7367 15.8361 64.057C16.1214 64.1986 16.4356 64.2722 16.7541 64.2722C17.0726 64.2722 17.3868 64.1986 17.6721 64.057C18.1606 64.339 18.7147 64.4875 19.2787 64.4875C19.8427 64.4875 20.3968 64.339 20.8852 64.057C21.3698 62.8809 21.3698 61.5609 20.8852 60.3849C20.8852 57.4012 17.2131 55.1062 14.918 52.1226L14.918 50.516L13.7705 52.1226C11.4754 55.1062 8.49179 57.4012 7.80326 60.3849C7.31869 61.5609 7.31869 62.8809 7.80326 64.057C8.22489 64.7264 8.87865 65.2167 9.63933 65.434C9.92465 65.5756 10.2389 65.6493 10.5574 65.6493C10.8759 65.6493 11.1901 65.5756 11.4754 65.434C11.673 64.7597 11.673 64.0428 11.4754 63.3685C11.4034 62.8259 11.2243 62.303 10.9485 61.8302C10.6727 61.3574 10.3057 60.9441 9.86884 60.6144C10.249 60.5542 10.6362 60.5542 11.0164 60.6144C11.9894 60.7747 12.8794 61.2601 13.541 61.9914C13.7746 62.5352 13.8951 63.1209 13.8951 63.7127C13.8951 64.3046 13.7746 64.8903 13.541 65.434L12.1639 67.7291C11.3373 67.9534 10.4659 67.9534 9.63933 67.7291C8.76514 67.7743 7.89276 67.6105 7.0945 67.2513C6.29624 66.8921 5.59509 66.3478 5.04916 65.6636C4.24524 63.6762 4.24524 61.4542 5.04916 59.4668C5.31771 57.606 5.94101 55.814 6.88523 54.1881L10.7869 50.2865C11.8448 49.3145 12.7025 48.145 13.3115 46.8439C13.6439 45.6424 13.6439 44.3732 13.3115 43.1717C12.9553 42.1057 12.2203 41.2074 11.2459 40.6471C10.4091 40.5213 9.55813 40.5213 8.7213 40.6471C7.34425 40.6471 6.88523 42.2537 6.88523 42.0242C6.88523 41.7947 6.88523 42.0242 8.7213 40.1881C9.70099 39.9451 10.7252 39.9451 11.7049 40.1881C12.5296 40.3163 13.3144 40.6302 14 41.1062Z" fill="#7B529E"/>
<path d="M14.0001 136.582C13.51 137.444 12.7964 138.157 11.9345 138.647C10.9548 138.89 9.93056 138.89 8.95087 138.647C7.34431 137.729 7.34431 136.582 7.1148 136.582C7.58205 137.265 8.28017 137.758 9.08111 137.969C9.88205 138.179 10.7321 138.094 11.4755 137.729C12.2451 137.515 12.953 137.122 13.541 136.582C13.8854 135.382 13.8854 134.109 13.541 132.91C12.9979 131.505 12.1332 130.247 11.0164 129.237L6.88529 124.418C5.45184 122.818 4.35864 120.944 3.67218 118.909C3.52031 117.045 4.0058 115.184 5.04923 113.631C5.46342 112.717 6.10111 111.923 6.90338 111.322C7.70566 110.72 8.64664 110.33 9.6394 110.188C10.466 109.964 11.3374 109.964 12.164 110.188L13.541 113.631C13.7747 114.175 13.8951 114.76 13.8951 115.352C13.8951 115.944 13.7747 116.53 13.541 117.073C13.0746 118.333 12.1812 119.389 11.0164 120.057C10.6347 120.091 10.2507 120.091 9.8689 120.057C10.5901 119.641 11.1847 119.037 11.5889 118.31C11.9932 117.582 12.192 116.758 12.164 115.926C12.1533 115.112 11.9148 114.317 11.4755 113.631C10.8815 113.421 10.2334 113.421 9.6394 113.631C8.82823 113.311 7.92597 113.311 7.1148 113.631C6.86205 114.21 6.73159 114.835 6.73159 115.467C6.73159 116.099 6.86205 116.724 7.1148 117.303C8.38871 120.651 10.3423 123.698 12.8525 126.254L14.0001 127.86L14.0001 126.254C16.9057 124.101 19.3292 121.365 21.1148 118.221C21.4834 117.503 21.6562 116.701 21.6159 115.895C21.5756 115.089 21.3236 114.308 20.8853 113.631C20.0741 113.311 19.1719 113.311 18.3607 113.631C17.7667 113.421 17.1187 113.421 16.5246 113.631C16.379 113.956 16.3037 114.308 16.3037 114.664C16.3037 115.02 16.379 115.372 16.5246 115.696C16.4126 116.266 16.4374 116.855 16.597 117.413C16.7566 117.972 17.0464 118.485 17.4427 118.909C16.8021 118.63 16.2266 118.22 15.7525 117.707C15.2784 117.193 14.9161 116.587 14.6886 115.926C14.4075 115.195 14.3282 114.403 14.4591 113.631L15.8361 111.106C16.6627 110.882 17.5341 110.882 18.3607 111.106C19.3453 111.078 20.3217 111.293 21.2027 111.734C22.0838 112.174 22.842 112.826 23.4099 113.631C23.8615 114.601 24.0955 115.659 24.0955 116.729C24.0955 117.8 23.8615 118.857 23.4099 119.828C22.8995 121.472 22.1243 123.023 21.1148 124.418L17.2132 128.09C16.1678 129.16 15.3139 130.403 14.6886 131.762C14.0119 133.283 13.93 135.003 14.4591 136.582C15.0471 137.122 15.755 137.515 16.5246 137.729C16.9237 137.9 17.3531 137.988 17.7869 137.988C18.2208 137.988 18.6502 137.9 19.0492 137.729C19.7756 137.571 20.4245 137.165 20.8853 136.582C20.7374 137.006 20.4954 137.392 20.1775 137.71C19.8595 138.028 19.4739 138.27 19.0492 138.418C18.0695 138.661 17.0453 138.661 16.0656 138.418C15.2323 137.991 14.5214 137.359 14.0001 136.582Z" fill="#7B529E"/>
<path d="M14 67.7291C14.224 68.7966 14.7876 69.7628 15.6065 70.4832C16.7595 71.7044 17.9858 72.854 19.2787 73.9259C20.6557 75.3029 21.5737 77.598 20.8852 78.2865C20.1967 78.9751 17.6721 78.2865 16.295 76.68C15.3217 75.4294 14.5475 74.0359 14 72.5488C13.5497 74.0786 12.7659 75.4895 11.7049 76.68C10.3278 78.2865 8.03274 79.2046 7.11471 78.2865C6.19668 77.3685 7.11471 75.3029 8.72127 73.9259C10.0142 72.854 11.2405 71.7044 12.3934 70.4832C13.2123 69.7628 13.776 68.7966 14 67.7291Z" fill="#7B529E"/>
<path d="M14.0002 109.959L12.3936 107.893C11.2407 106.672 10.0144 105.522 8.72151 104.45C7.57397 103.073 6.42642 100.778 7.11495 100.09C7.80347 99.4013 10.3281 100.09 11.7051 101.696C12.7146 102.923 13.4923 104.323 14.0002 105.828C14.6009 104.365 15.3712 102.979 16.2953 101.696C17.6723 100.09 19.9674 99.1718 20.8855 100.09C21.8035 101.008 20.8855 103.073 19.2789 104.45C17.986 105.522 16.7597 106.672 15.6068 107.893L14.0002 109.959Z" fill="#7B529E"/>
<path d="M19.7376 95.0406L24.0983 92.9751C22.916 93.8426 21.8378 94.8438 20.8851 95.9587C19.7575 96.9716 18.6849 98.0442 17.672 99.1718C18.5406 97.8924 19.2353 96.5032 19.7376 95.0406Z" fill="#7B529E"/>
<path d="M19.7376 83.3357L17.672 79.2045C18.6849 80.3321 19.7575 81.4047 20.8851 82.4176L24.0983 85.6308C22.6961 84.7719 21.2394 84.0052 19.7376 83.3357Z" fill="#7B529E"/>
<path d="M8.26233 83.3357C6.76049 84.0052 5.30386 84.7719 3.90168 85.6308C5.0293 84.6178 6.10187 83.5453 7.11479 82.4176C8.2983 81.4653 9.37557 80.388 10.3279 79.2045L8.26233 83.3357Z" fill="#7B529E"/>
<path d="M8.26233 95.0406L10.3279 99.1718C9.37557 97.9883 8.2983 96.911 7.11479 95.9587C6.16217 94.8438 5.08399 93.8426 3.90168 92.9751L8.26233 95.0406Z" fill="#7B529E"/>
<path d="M7.11475 107.205C7.11475 107.205 8.26229 107.205 9.18033 107.205C9.9572 107.4 10.6693 107.796 11.2459 108.352L13.082 110.647C12.3972 110.005 11.6244 109.464 10.7869 109.041C10.7869 109.041 8.95082 109.041 8.72131 109.041C8.4918 109.041 7.11475 107.664 7.11475 107.205Z" fill="#7B529E"/>
<path d="M20.8853 71.1718C20.8853 71.1718 20.8853 71.1718 18.8197 71.1718L16.7541 70.0242L14.918 67.7291C15.4726 68.5156 16.2843 69.0838 17.2131 69.3357C17.8974 69.4432 18.5944 69.4432 19.2787 69.3357C19.2787 69.3357 20.8853 70.7128 20.8853 71.1718Z" fill="#7B529E"/>
<path d="M20.8853 107.205C20.8853 107.205 20.8853 107.205 18.8197 107.205C18.0177 107.465 17.3031 107.942 16.7541 108.582L14.918 110.877C15.5871 110.154 16.3607 109.535 17.2131 109.041C17.2131 109.041 19.0492 109.041 19.2787 109.041C19.5082 109.041 20.8853 107.664 20.8853 107.205Z" fill="#7B529E"/>
<path d="M7.11475 71.1718C7.11475 71.1718 8.26229 71.1718 9.18033 71.1718L11.2459 70.0242L13.082 67.7291C12.5274 68.5156 11.7157 69.0838 10.7869 69.3357C10.1026 69.4432 9.40564 69.4432 8.72131 69.3357C8.72131 69.3357 7.11475 70.7128 7.11475 71.1718Z" fill="#7B529E"/>
</svg>
